<svg width="44" height="36" viewBox="0 0 44 36" fill="none" xmlns="http://www.w3.org/2000/svg">
<path d="M26 1.21003C26 0.519674 26.5615 -0.0444804 27.2502 0.00277043C36.6081 0.644768 44 8.43916 44 17.96C44 27.4809 36.6081 35.2753 27.2502 35.9173C26.5615 35.9645 26 35.4004 26 34.71V34.6237C26 33.981 25.479 33.46 24.8364 33.46C24.3055 33.46 23.8664 33.8491 23.5231 34.254C23.1569 34.6859 22.6109 34.96 22 34.96C21.3891 34.96 20.8431 34.6859 20.4769 34.254C20.1336 33.8491 19.6945 33.46 19.1636 33.46C18.521 33.46 18 33.981 18 34.6237V34.71C18 35.4004 17.4385 35.9645 16.7498 35.9173C7.3919 35.2753 0 27.4809 0 17.96C0 8.43916 7.3919 0.644769 16.7498 0.00277048C17.4385 -0.0444804 18 0.519674 18 1.21003V1.29638C18 1.93905 18.521 2.46003 19.1636 2.46003C19.6945 2.46003 20.1336 2.07099 20.4769 1.66611C20.8431 1.23421 21.3891 0.96003 22 0.96003C22.6109 0.96003 23.1569 1.23421 23.5231 1.66611C23.8664 2.07099 24.3055 2.46003 24.8364 2.46003C25.479 2.46003 26 1.93905 26 1.29638V1.21003ZM22 31.96C21.4477 31.96 21 32.4077 21 32.96C21 33.5123 21.4477 33.96 22 33.96C22.5523 33.96 23 33.5123 23 32.96C23 32.4077 22.5523 31.96 22 31.96ZM28.7904 8.35779C28.1741 8.17908 27.518 8.38372 27.0692 8.8424C26.0664 9.86728 25.3256 10.7893 24.7803 11.7852C23.9538 13.2947 23.5128 15.0943 23.5 17.8907C23.5108 20.6746 23.2284 22.956 22.1934 25.088C21.3971 26.7279 20.2004 28.184 18.5384 29.6924C18.2003 29.9993 18 30.4314 18 30.888V31.2964C18 31.939 18.521 32.46 19.1636 32.46C19.6945 32.46 20.1336 32.071 20.4769 31.6661C20.8431 31.2342 21.3891 30.96 22 30.96C22.6109 30.96 23.1569 31.2342 23.5231 31.6661C23.8664 32.071 24.3055 32.46 24.8364 32.46C25.479 32.46 26 31.939 26 31.2964V29.96C26 28.8555 26.9045 27.9809 27.9872 27.7626C32.5581 26.841 36 22.8025 36 17.96C36 13.4059 32.9552 9.56542 28.7904 8.35779ZM18 5.96003C18 7.0646 17.0955 7.93917 16.0128 8.15748C11.4419 9.07908 8 13.1176 8 17.96C8 22.5188 11.0509 26.3626 15.2221 27.5662C15.8101 27.7359 16.438 27.5581 16.8822 27.1371C18.1523 25.9336 18.9634 24.8706 19.4941 23.7774C20.2395 22.2422 20.5109 20.4902 20.5 17.8897V17.877L20.5088 17.2999C20.5795 14.4613 21.0841 12.2905 22.1494 10.3448C22.9826 8.82305 24.1253 7.50862 25.5144 6.15661C25.8219 5.85734 26 5.44829 26 5.0192V4.62367C26 3.98101 25.479 3.46003 24.8364 3.46003C24.3055 3.46003 23.8664 3.84907 23.5231 4.25395C23.1569 4.68585 22.6109 4.96003 22 4.96003C21.3891 4.96003 20.8431 4.68585 20.4769 4.25395C20.1336 3.84907 19.6945 3.46003 19.1636 3.46003C18.521 3.46003 18 3.98101 18 4.62367V5.96003ZM22 1.96003C21.4477 1.96003 21 2.40774 21 2.96003C21 3.51231 21.4477 3.96003 22 3.96003C22.5523 3.96003 23 3.51231 23 2.96003C23 2.40774 22.5523 1.96003 22 1.96003Z" fill="#2EBCFE"/>
</svg>
