<svg width="44" height="36" viewBox="0 0 44 36" fill="none" xmlns="http://www.w3.org/2000/svg">
<path d="M26 1.67361C26 0.707108 26.7859 -0.085318 27.7479 0.0073877C36.8689 0.886312 44 8.57217 44 17.9236C44 27.275 36.8689 34.9609 27.7479 35.8398C26.7859 35.9325 26 35.1401 26 34.1736V33.5873C26 32.9446 25.479 32.4236 24.8364 32.4236C24.3055 32.4236 23.8664 32.8126 23.5231 33.2175C23.1569 33.6494 22.6109 33.9236 22 33.9236C21.3891 33.9236 20.8431 33.6494 20.4769 33.2175C20.1336 32.8126 19.6945 32.4236 19.1636 32.4236C18.521 32.4236 18 32.9446 18 33.5873V34.1736C18 35.1401 17.2141 35.9325 16.2521 35.8398C7.13115 34.9609 0 27.275 0 17.9236C0 8.57217 7.13115 0.886312 16.2521 0.00738774C17.2141 -0.085318 18 0.707108 18 1.67361V2.25996C18 2.90263 18.521 3.42361 19.1636 3.42361C19.6945 3.42361 20.1336 3.03457 20.4769 2.62968C20.8431 2.19778 21.3891 1.92361 22 1.92361C22.6109 1.92361 23.1569 2.19778 23.5231 2.62968C23.8664 3.03457 24.3055 3.42361 24.8364 3.42361C25.479 3.42361 26 2.90263 26 2.25996V1.67361ZM22 30.9236C21.4477 30.9236 21 31.3713 21 31.9236C21 32.4759 21.4477 32.9236 22 32.9236C22.5523 32.9236 23 32.4759 23 31.9236C23 31.3713 22.5523 30.9236 22 30.9236ZM28.8618 8.34161C28.2437 8.15735 27.583 8.36033 27.1304 8.81988C26.0965 9.8698 25.3366 10.8089 24.7803 11.825C23.9537 13.3345 23.5128 15.1339 23.5 17.9304C23.5108 20.7145 23.2285 22.9957 22.1934 25.1277C21.3576 26.8492 20.0805 28.368 18.2871 29.9575C18.106 30.118 18 30.3479 18 30.59C18 31.0504 18.3732 31.4236 18.8336 31.4236H19.1636C19.6945 31.4236 20.1336 31.0346 20.4769 30.6297C20.8431 30.1978 21.3891 29.9236 22 29.9236C22.6109 29.9236 23.1569 30.1978 23.5231 30.6297C23.8664 31.0346 24.3055 31.4236 24.8364 31.4236C25.479 31.4236 26 30.9026 26 30.26V29.6736C26 28.7071 26.79 27.9396 27.7419 27.7724C32.4344 26.9482 36 22.8523 36 17.9236C36 13.3954 32.9899 9.57229 28.8618 8.34161ZM18 6.17361C18 7.14011 17.21 7.90758 16.2581 8.07479C11.5656 8.89905 8 12.9949 8 17.9236C8 22.5104 11.0887 26.3729 15.2994 27.551C15.8861 27.7151 16.5098 27.5349 16.9501 27.1139C18.1815 25.9363 18.9728 24.891 19.4941 23.8172C20.2395 22.2819 20.5109 20.53 20.5 17.9295V17.9168L20.5088 17.3396C20.5795 14.501 21.0841 12.3303 22.1494 10.3845C23.0223 8.79027 24.2348 7.42364 25.7146 6.00287C25.896 5.82873 26 5.58872 26 5.33727C26 4.83267 25.5909 4.42361 25.0863 4.42361H24.8364C24.3055 4.42361 23.8664 4.81265 23.5231 5.21753C23.1569 5.64943 22.6109 5.92361 22 5.92361C21.3891 5.92361 20.8431 5.64943 20.4769 5.21753C20.1336 4.81265 19.6945 4.42361 19.1636 4.42361C18.521 4.42361 18 4.94459 18 5.58725V6.17361ZM22 2.92361C21.4477 2.92361 21 3.37132 21 3.92361C21 4.47589 21.4477 4.92361 22 4.92361C22.5523 4.92361 23 4.47589 23 3.92361C23 3.37132 22.5523 2.92361 22 2.92361Z" fill="#2EBCFE"/>
</svg>
