<svg width="52" height="44" viewBox="0 0 52 44" fill="none" xmlns="http://www.w3.org/2000/svg">
<g filter="url(#filter0_d_315_50)">
<path d="M30 1.21003C30 0.519674 30.5615 -0.0444804 31.2502 0.00277043C40.6081 0.644768 48 8.43916 48 17.96C48 27.4809 40.6081 35.2753 31.2502 35.9173C30.5615 35.9645 30 35.4004 30 34.71V34.6237C30 33.981 29.479 33.46 28.8364 33.46C28.3055 33.46 27.8664 33.8491 27.5231 34.254C27.1569 34.6859 26.6109 34.96 26 34.96C25.3891 34.96 24.8431 34.6859 24.4769 34.254C24.1336 33.8491 23.6945 33.46 23.1636 33.46C22.521 33.46 22 33.981 22 34.6237V34.71C22 35.4004 21.4385 35.9645 20.7498 35.9173C11.3919 35.2753 4 27.4809 4 17.96C4 8.43916 11.3919 0.644769 20.7498 0.00277048C21.4385 -0.0444804 22 0.519674 22 1.21003V1.29638C22 1.93905 22.521 2.46003 23.1636 2.46003C23.6945 2.46003 24.1336 2.07099 24.4769 1.66611C24.8431 1.23421 25.3891 0.96003 26 0.96003C26.6109 0.96003 27.1569 1.23421 27.5231 1.66611C27.8664 2.07099 28.3055 2.46003 28.8364 2.46003C29.479 2.46003 30 1.93905 30 1.29638V1.21003ZM26 31.96C25.4477 31.96 25 32.4077 25 32.96C25 33.5123 25.4477 33.96 26 33.96C26.5523 33.96 27 33.5123 27 32.96C27 32.4077 26.5523 31.96 26 31.96ZM32.7904 8.35779C32.1741 8.17908 31.518 8.38372 31.0692 8.8424C30.0664 9.86728 29.3256 10.7893 28.7803 11.7852C27.9538 13.2947 27.5128 15.0943 27.5 17.8907C27.5108 20.6746 27.2284 22.956 26.1934 25.088C25.3971 26.7279 24.2004 28.184 22.5384 29.6924C22.2003 29.9993 22 30.4314 22 30.888V31.2964C22 31.939 22.521 32.46 23.1636 32.46C23.6945 32.46 24.1336 32.071 24.4769 31.6661C24.8431 31.2342 25.3891 30.96 26 30.96C26.6109 30.96 27.1569 31.2342 27.5231 31.6661C27.8664 32.071 28.3055 32.46 28.8364 32.46C29.479 32.46 30 31.939 30 31.2964V29.96C30 28.8555 30.9045 27.9809 31.9872 27.7626C36.5581 26.841 40 22.8025 40 17.96C40 13.4059 36.9552 9.56542 32.7904 8.35779ZM22 5.96003C22 7.0646 21.0955 7.93917 20.0128 8.15748C15.4419 9.07908 12 13.1176 12 17.96C12 22.5188 15.0509 26.3626 19.2221 27.5662C19.8101 27.7359 20.438 27.5581 20.8822 27.1371C22.1523 25.9336 22.9634 24.8706 23.4941 23.7774C24.2395 22.2422 24.5109 20.4902 24.5 17.8897V17.877L24.5088 17.2999C24.5795 14.4613 25.0841 12.2905 26.1494 10.3448C26.9826 8.82305 28.1253 7.50862 29.5144 6.15661C29.8219 5.85734 30 5.44829 30 5.0192V4.62367C30 3.98101 29.479 3.46003 28.8364 3.46003C28.3055 3.46003 27.8664 3.84907 27.5231 4.25395C27.1569 4.68585 26.6109 4.96003 26 4.96003C25.3891 4.96003 24.8431 4.68585 24.4769 4.25395C24.1336 3.84907 23.6945 3.46003 23.1636 3.46003C22.521 3.46003 22 3.98101 22 4.62367V5.96003ZM26 1.96003C25.4477 1.96003 25 2.40774 25 2.96003C25 3.51231 25.4477 3.96003 26 3.96003C26.5523 3.96003 27 3.51231 27 2.96003C27 2.40774 26.5523 1.96003 26 1.96003Z" fill="url(#paint0_radial_315_50)"/>
</g>
<defs>
<filter id="filter0_d_315_50" x="0" y="0" width="52" height="43.9201" filterUnits="userSpaceOnUse" color-interpolation-filters="sRGB">
<feFlood flood-opacity="0" result="BackgroundImageFix"/>
<feColorMatrix in="SourceAlpha" type="matrix" values="0 0 0 0 0 0 0 0 0 0 0 0 0 0 0 0 0 0 127 0" result="hardAlpha"/>
<feOffset dy="4"/>
<feGaussianBlur stdDeviation="2"/>
<feComposite in2="hardAlpha" operator="out"/>
<feColorMatrix type="matrix" values="0 0 0 0 0 0 0 0 0 0 0 0 0 0 0 0 0 0 0.25 0"/>
<feBlend mode="normal" in2="BackgroundImageFix" result="effect1_dropShadow_315_50"/>
<feBlend mode="normal" in="SourceGraphic" in2="effect1_dropShadow_315_50" result="shape"/>
</filter>
<radialGradient id="paint0_radial_315_50" cx="0" cy="0" r="1" gradientUnits="userSpaceOnUse" gradientTransform="translate(26 17.96) rotate(90) scale(18 22)">
<stop offset="0.730769" stop-color="#2EBCFE"/>
<stop offset="1" stop-color="#1C7198"/>
</radialGradient>
</defs>
</svg>
