<svg width="44" height="28" viewBox="0 0 44 28" fill="none" xmlns="http://www.w3.org/2000/svg">
<path d="M22 0C23.3201 0 24.4406 0.852647 24.8417 2.03721C24.9301 2.29831 25.1599 2.5 25.4356 2.5C25.7473 2.5 26 2.24731 26 1.9356V1.43179C26 0.792688 26.5589 0.295291 27.1906 0.392514C36.8359 1.87708 44 7.40587 44 14C44 20.5942 36.8356 26.1222 27.1901 27.6066C26.5587 27.7038 26 27.2066 26 26.5677V26.0644C26 25.7527 25.7473 25.5 25.4356 25.5C25.1599 25.5 24.9301 25.7017 24.8417 25.9628C24.4406 27.1474 23.3201 28 22 28C20.6799 28 19.5594 27.1474 19.1583 25.9628C19.0699 25.7017 18.8401 25.5 18.5644 25.5C18.2527 25.5 18 25.7527 18 26.0644V26.5677C18 27.2066 17.4413 27.7038 16.8099 27.6066C7.1644 26.1222 0 20.5942 0 14C0 7.40587 7.1641 1.87708 16.8094 0.392515C17.4411 0.295291 18 0.792688 18 1.43179V1.9356C18 2.24731 18.2527 2.5 18.5644 2.5C18.8401 2.5 19.0699 2.29831 19.1583 2.03721C19.5594 0.852648 20.6799 0 22 0ZM21.8789 24.0068C21.8638 24.0087 21.8489 24.0121 21.834 24.0146C21.8069 24.0192 21.7802 24.0246 21.7539 24.0312C21.7438 24.0338 21.7336 24.0362 21.7236 24.0391C21.648 24.0608 21.5759 24.091 21.5088 24.1289C21.4972 24.1355 21.4859 24.1424 21.4746 24.1494C21.4471 24.1665 21.4202 24.1845 21.3945 24.2041C21.3901 24.2075 21.3862 24.2114 21.3818 24.2148C21.3191 24.2643 21.2622 24.3209 21.2129 24.3838C21.2079 24.3902 21.2031 24.3968 21.1982 24.4033C21.074 24.5699 21 24.7762 21 25C21 25.2235 21.0743 25.4292 21.1982 25.5957C21.2031 25.6022 21.2079 25.6088 21.2129 25.6152C21.2622 25.6782 21.319 25.7346 21.3818 25.7842C21.3862 25.7876 21.3901 25.7916 21.3945 25.7949C21.4202 25.8145 21.447 25.8325 21.4746 25.8496C21.4859 25.8566 21.4972 25.8635 21.5088 25.8701C21.576 25.9081 21.6479 25.9382 21.7236 25.96C21.7336 25.9628 21.7438 25.9652 21.7539 25.9678C21.7802 25.9744 21.8069 25.9798 21.834 25.9844C21.8489 25.9869 21.8637 25.9904 21.8789 25.9922C21.9186 25.997 21.959 26 22 26C22.0407 26 22.0807 25.9969 22.1201 25.9922C22.1353 25.9904 22.1501 25.9869 22.165 25.9844C22.1922 25.9799 22.2188 25.9744 22.2451 25.9678C22.2553 25.9652 22.2654 25.9628 22.2754 25.96C22.3512 25.9383 22.423 25.9081 22.4902 25.8701C22.5018 25.8636 22.5131 25.8566 22.5244 25.8496C22.552 25.8325 22.5788 25.8145 22.6045 25.7949C22.6089 25.7916 22.6128 25.7876 22.6172 25.7842C22.6801 25.7346 22.7367 25.6782 22.7861 25.6152C22.7912 25.6088 22.7959 25.6022 22.8008 25.5957C22.9249 25.4291 23 25.2237 23 25C23 24.776 22.9252 24.57 22.8008 24.4033C22.7959 24.3968 22.7912 24.3902 22.7861 24.3838C22.7367 24.3209 22.68 24.2643 22.6172 24.2148C22.6128 24.2114 22.6089 24.2075 22.6045 24.2041C22.5788 24.1845 22.552 24.1665 22.5244 24.1494C22.5131 24.1424 22.5018 24.1355 22.4902 24.1289C22.423 24.091 22.3511 24.0607 22.2754 24.0391C22.2654 24.0362 22.2552 24.0338 22.2451 24.0312C22.2188 24.0246 22.1921 24.0192 22.165 24.0146C22.1501 24.0122 22.1353 24.0087 22.1201 24.0068C22.0807 24.0021 22.0406 24 22 24C21.959 24 21.9186 24.002 21.8789 24.0068ZM28.2556 6.72848C27.5907 6.56557 26.8851 6.66211 26.3002 7.01786C25.4103 7.5591 24.7566 8.10611 24.2705 8.76562C23.4767 9.84291 23.03 11.3607 23 14.0117C22.9742 16.443 22.6781 18.3844 21.6318 20.0107C20.9014 21.146 19.8527 22.0534 18.4452 22.8767C18.1732 23.0358 18 23.324 18 23.6392V23.9356C18 24.2473 18.2527 24.5 18.5644 24.5C18.8401 24.5 19.0699 24.2983 19.1583 24.0372C19.5594 22.8526 20.6799 22 22 22C23.3201 22 24.4406 22.8526 24.8417 24.0372C24.9301 24.2983 25.1599 24.5 25.4356 24.5C25.7473 24.5 26 24.2473 26 23.9356V23.0028C26 22.2602 26.5462 21.6349 27.2744 21.489C32.9564 20.3508 37 17.4282 37 14C37 10.7726 33.4163 7.99286 28.2556 6.72848ZM18 4.99662C18 5.739 17.454 6.36412 16.726 6.50994C11.0437 7.64821 7 10.5716 7 14C7 17.232 10.5941 20.014 15.7667 21.2757C16.4311 21.4377 17.1366 21.3414 17.7179 20.981C18.7805 20.3224 19.4768 19.6629 19.9492 18.9287C20.6837 17.7871 20.9754 16.3141 21 13.9893V13.9883C21.0322 11.1507 21.509 9.14237 22.6611 7.5791C23.4017 6.57432 24.3798 5.81427 25.5501 5.13518C25.825 4.97564 26 4.68489 26 4.36703V4.0644C26 3.75269 25.7473 3.5 25.4356 3.5C25.1599 3.5 24.9301 3.70169 24.8417 3.96279C24.4406 5.14735 23.3201 6 22 6C20.6799 6 19.5594 5.14735 19.1583 3.96279C19.0699 3.70169 18.8401 3.5 18.5644 3.5C18.2527 3.5 18 3.75269 18 4.0644V4.99662ZM21.8789 2.00684C21.8638 2.00867 21.8489 2.01214 21.834 2.01465C21.8069 2.01918 21.7802 2.02459 21.7539 2.03125C21.7438 2.03382 21.7336 2.03618 21.7236 2.03906C21.648 2.06078 21.5759 2.09095 21.5088 2.12891C21.4972 2.13546 21.4859 2.14241 21.4746 2.14941C21.4471 2.16647 21.4202 2.18453 21.3945 2.2041C21.3901 2.20746 21.3862 2.21141 21.3818 2.21484C21.3191 2.26434 21.2622 2.32087 21.2129 2.38379C21.2079 2.39019 21.2031 2.39679 21.1982 2.40332C21.074 2.56995 21 2.7762 21 3C21 3.22352 21.0743 3.42919 21.1982 3.5957C21.2031 3.60224 21.2079 3.60882 21.2129 3.61523C21.2622 3.67824 21.319 3.73461 21.3818 3.78418C21.3862 3.78762 21.3901 3.79155 21.3945 3.79492C21.4202 3.81452 21.447 3.83253 21.4746 3.84961C21.4859 3.85662 21.4972 3.86355 21.5088 3.87012C21.576 3.90814 21.6479 3.9382 21.7236 3.95996C21.7336 3.96285 21.7438 3.9652 21.7539 3.96777C21.7802 3.97445 21.8069 3.97984 21.834 3.98438C21.8489 3.98688 21.8637 3.99035 21.8789 3.99219C21.9186 3.99698 21.959 4 22 4C22.0407 4 22.0807 3.99691 22.1201 3.99219C22.1353 3.99037 22.1501 3.98687 22.165 3.98438C22.1922 3.97986 22.2188 3.97442 22.2451 3.96777C22.2553 3.96521 22.2654 3.96284 22.2754 3.95996C22.3512 3.93826 22.423 3.90809 22.4902 3.87012C22.5018 3.86355 22.5131 3.85662 22.5244 3.84961C22.552 3.83254 22.5788 3.81451 22.6045 3.79492C22.6089 3.79156 22.6128 3.78762 22.6172 3.78418C22.6801 3.73463 22.7367 3.67825 22.7861 3.61523C22.7912 3.60882 22.7959 3.60224 22.8008 3.5957C22.9249 3.4291 23 3.22373 23 3C23 2.77599 22.9252 2.57003 22.8008 2.40332C22.7959 2.39679 22.7912 2.3902 22.7861 2.38379C22.7367 2.32086 22.68 2.26433 22.6172 2.21484C22.6128 2.21141 22.6089 2.20746 22.6045 2.2041C22.5788 2.18454 22.552 2.16646 22.5244 2.14941C22.5131 2.14242 22.5018 2.13546 22.4902 2.12891C22.423 2.091 22.3511 2.06072 22.2754 2.03906C22.2654 2.03619 22.2552 2.03381 22.2451 2.03125C22.2188 2.02461 22.1921 2.01915 22.165 2.01465C22.1501 2.01216 22.1353 2.00865 22.1201 2.00684C22.0807 2.00212 22.0406 2 22 2C21.959 2 21.9186 2.00205 21.8789 2.00684Z" fill="#31BCFD"/>
</svg>
